<?xml version="1.0"?>
<svg xmlns="http://www.w3.org/2000/svg" xmlns:xlink="http://www.w3.org/1999/xlink" version="1.1" id="Capa_1" x="0px" y="0px" viewBox="0 0 490 490" style="enable-background:new 0 0 490 490;" xml:space="preserve" width="512px" height="512px" class=""><g><g>
	<g>
		<path d="M401.45,0c-36.1,0-66,26.3-71.9,60.8H27.85c-6.8,0-12.3,5.5-12.3,12.3s5.5,12.3,12.3,12.3h301.6    c5.9,34.4,35.8,60.8,71.9,60.8c40.3,0,73-32.7,73-73S441.65,0,401.45,0z M401.45,121.5c-26.7,0-48.5-21.8-48.5-48.5    s21.8-48.5,48.5-48.5s48.5,21.8,48.5,48.5S428.15,121.5,401.45,121.5z" data-original="#000000" class="active-path" data-old_color="#000000" fill="#CACDD3"/>
		<path d="M462.25,232h-301.7c-5.9-34.4-35.8-60.8-71.9-60.8c-40.3,0-73,32.7-73,73s32.8,73,73,73c36.1,0,66-26.3,71.9-60.8h301.6    c6.8,0,12.3-5.5,12.3-12.3C474.45,237.5,468.95,232,462.25,232z M88.65,292.8c-26.7,0-48.5-21.8-48.5-48.5s21.8-48.5,48.5-48.5    s48.5,21.8,48.5,48.5S115.45,292.8,88.65,292.8z" data-original="#000000" class="active-path" data-old_color="#000000" fill="#CACDD3"/>
		<path d="M401.45,343.8c-36.1,0-66,26.3-71.9,60.8H27.85c-6.8,0-12.3,5.5-12.3,12.3s5.5,12.3,12.3,12.3h301.6    c5.9,34.4,35.8,60.8,71.9,60.8c40.3,0,73-32.7,73-73S441.65,343.8,401.45,343.8z M401.45,465.3c-26.7,0-48.5-21.8-48.5-48.5    s21.8-48.5,48.5-48.5s48.5,21.8,48.5,48.5S428.15,465.3,401.45,465.3z" data-original="#000000" class="active-path" data-old_color="#000000" fill="#CACDD3"/>
	</g>
</g></g> </svg>
